<svg width="24" height="24" viewBox="0 0 24 24" fill="none" xmlns="http://www.w3.org/2000/svg">
<path fill-rule="evenodd" clip-rule="evenodd" d="M12 24C18.6274 24 24 18.6274 24 12C24 5.37258 18.6274 0 12 0C5.37258 0 0 5.37258 0 12C0 18.6274 5.37258 24 12 24ZM16.9705 16.4569C15.8255 17.7589 14.1001 18.552 12.1732 18.552C8.37525 18.552 5.62125 15.708 5.62125 12C5.62125 8.292 8.37525 5.448 12.1732 5.448C14.0839 5.448 15.8059 6.24016 16.961 7.54074C17.3347 7.96154 17.1715 8.59692 16.6846 8.87918L15.9581 9.30034C15.4788 9.57816 14.8718 9.39488 14.4495 9.0364C13.8606 8.53653 13.0651 8.256 12.1732 8.256C9.94125 8.256 8.50125 9.75 8.50125 12C8.50125 14.25 9.94125 15.744 12.1732 15.744C13.0578 15.744 13.8562 15.468 14.443 14.9758C14.8716 14.6162 15.4864 14.4262 15.9703 14.7068L16.6911 15.1246C17.1755 15.4054 17.3402 16.0364 16.9705 16.4569Z" fill="#51841A"/>
</svg>
