<svg width="24" height="24" viewBox="0 0 24 24" fill="none" xmlns="http://www.w3.org/2000/svg">
<circle cx="12" cy="12" r="11" stroke="#808080" stroke-width="2"/>
<path d="M12.1732 18.552C14.1001 18.552 15.8255 17.7589 16.9705 16.4569C17.3402 16.0364 17.1755 15.4054 16.6911 15.1246L15.9703 14.7068C15.4864 14.4262 14.8716 14.6162 14.443 14.9758C13.8562 15.468 13.0578 15.744 12.1732 15.744C9.94125 15.744 8.50125 14.25 8.50125 12C8.50125 9.75 9.94125 8.256 12.1732 8.256C13.0651 8.256 13.8606 8.53653 14.4495 9.0364C14.8718 9.39488 15.4788 9.57816 15.9581 9.30034L16.6846 8.87918C17.1715 8.59692 17.3347 7.96154 16.961 7.54074C15.8059 6.24016 14.0839 5.448 12.1732 5.448C8.37525 5.448 5.62125 8.292 5.62125 12C5.62125 15.708 8.37525 18.552 12.1732 18.552Z" fill="#808080"/>
</svg>
